<?xml version="1.0" encoding="UTF-8" standalone="no"?>
<!DOCTYPE svg PUBLIC "-//W3C//DTD SVG 1.1//EN"
 "http://www.w3.org/Graphics/SVG/1.1/DTD/svg11.dtd">
<!-- Generated by graphviz version 11.0.0 (20240428.1522)
 -->
<!-- Title: root Pages: 1 -->
<svg width="1627pt" height="926pt"
 viewBox="0.00 0.00 1627.20 925.75" xmlns="http://www.w3.org/2000/svg" xmlns:xlink="http://www.w3.org/1999/xlink">
<g id="graph0" class="graph" transform="scale(1 1) rotate(0) translate(144 781.75)">
<title>root</title>
<polygon fill="white" stroke="none" points="-144,144 -144,-781.75 1483.2,-781.75 1483.2,144 -144,144"/>
<text text-anchor="middle" x="669.6" y="-7.4" font-family="Sans-Serif" font-size="13.00" fill="#2d3436">ETL</text>
<g id="clust1" class="cluster">
<title>cluster_oracleServer</title>
<path fill="#e5f5fd" stroke="#aeb6be" d="M158.8,-31.75C158.8,-31.75 1180.4,-31.75 1180.4,-31.75 1186.4,-31.75 1192.4,-37.75 1192.4,-43.75 1192.4,-43.75 1192.4,-617.75 1192.4,-617.75 1192.4,-623.75 1186.4,-629.75 1180.4,-629.75 1180.4,-629.75 158.8,-629.75 158.8,-629.75 152.8,-629.75 146.8,-623.75 146.8,-617.75 146.8,-617.75 146.8,-43.75 146.8,-43.75 146.8,-37.75 152.8,-31.75 158.8,-31.75"/>
<text text-anchor="middle" x="190.42" y="-614.35" font-family="Sans-Serif" font-size="12.00" fill="#2d3436">Oracle Server</text>
</g>
<!-- gdsqodnw -->
<g id="node1" class="node">
<title>gdsqodnw</title>
<image xlink:href="assets/azure/migration/migration-projects.png" width="100.8px" height="100.8px" preserveAspectRatio="xMinYMin meet" x="8.52651e-14" y="-370.15"/>
<text text-anchor="middle" x="50.4" y="-258.35" font-family="Sans-Serif" font-size="13.00" fill="#2d3436">filesOrigin</text>
</g>
<!-- ocqofipx -->
<g id="node2" class="node">
<title>ocqofipx</title>
<image xlink:href="assets/azure/general/csvfile.png" width="100.8px" height="100.8px" preserveAspectRatio="xMinYMin meet" x="154.8" y="-169.15"/>
<text text-anchor="middle" x="205.2" y="-42.95" font-family="Sans-Serif" font-size="13.00" fill="#2d3436">RawFile</text>
</g>
<!-- gdsqodnw&#45;&gt;ocqofipx -->
<g id="edge1" class="edge">
<title>gdsqodnw&#45;&gt;ocqofipx</title>
<path fill="none" stroke="#7b8894" d="M51.2,-255.05C51.2,-196.29 51.2,-118.75 51.2,-118.75 51.2,-118.75 143.69,-118.75 143.69,-118.75"/>
<polygon fill="#7b8894" stroke="#7b8894" points="143.69,-122.25 153.69,-118.75 143.69,-115.25 143.69,-122.25"/>
</g>
<!-- gxujzmjk -->
<g id="node10" class="node">
<title>gxujzmjk</title>
<image xlink:href="assets/azure/general/txtfile.png" width="100.8px" height="100.8px" preserveAspectRatio="xMinYMin meet" x="154.8" y="-370.15"/>
<text text-anchor="middle" x="205.2" y="-243.95" font-family="Sans-Serif" font-size="13.00" fill="#2d3436">RawFile</text>
</g>
<!-- gdsqodnw&#45;&gt;gxujzmjk -->
<g id="edge7" class="edge">
<title>gdsqodnw&#45;&gt;gxujzmjk</title>
<path fill="none" stroke="#7b8894" d="M100.66,-319.75C100.66,-319.75 143.41,-319.75 143.41,-319.75"/>
<polygon fill="#7b8894" stroke="#7b8894" points="143.41,-323.25 153.41,-319.75 143.41,-316.25 143.41,-323.25"/>
</g>
<!-- aopofdrh -->
<g id="node11" class="node">
<title>aopofdrh</title>
<image xlink:href="assets/azure/general/xmlfile.png" width="100.8px" height="100.8px" preserveAspectRatio="xMinYMin meet" x="154.8" y="-571.15"/>
<text text-anchor="middle" x="205.2" y="-444.95" font-family="Sans-Serif" font-size="13.00" fill="#2d3436">RawFile</text>
</g>
<!-- gdsqodnw&#45;&gt;aopofdrh -->
<g id="edge8" class="edge">
<title>gdsqodnw&#45;&gt;aopofdrh</title>
<path fill="none" stroke="#7b8894" d="M51.2,-384.45C51.2,-443.21 51.2,-520.75 51.2,-520.75 51.2,-520.75 143.69,-520.75 143.69,-520.75"/>
<polygon fill="#7b8894" stroke="#7b8894" points="143.69,-524.25 153.69,-520.75 143.69,-517.25 143.69,-524.25"/>
</g>
<!-- wmmubpes -->
<g id="node3" class="node">
<title>wmmubpes</title>
<image xlink:href="assets/azure/storage/general-storage.png" width="100.8px" height="100.8px" preserveAspectRatio="xMinYMin meet" x="309.6" y="-370.15"/>
<text text-anchor="middle" x="360" y="-243.95" font-family="Sans-Serif" font-size="13.00" fill="#2d3436">Load</text>
</g>
<!-- ocqofipx&#45;&gt;wmmubpes -->
<g id="edge9" class="edge">
<title>ocqofipx&#45;&gt;wmmubpes</title>
<path fill="none" stroke="#7b8894" d="M255.52,-118.75C300.78,-118.75 360.2,-118.75 360.2,-118.75 360.2,-118.75 360.2,-229.08 360.2,-229.08"/>
<polygon fill="#7b8894" stroke="#7b8894" points="356.7,-229.08 360.2,-239.08 363.7,-229.08 356.7,-229.08"/>
</g>
<!-- eurkiiyc -->
<g id="node4" class="node">
<title>eurkiiyc</title>
<image xlink:href="assets/azure/database/sql-databases.png" width="100.8px" height="100.8px" preserveAspectRatio="xMinYMin meet" x="464.4" y="-370.15"/>
<text text-anchor="middle" x="514.8" y="-243.95" font-family="Sans-Serif" font-size="13.00" fill="#2d3436">Staging</text>
</g>
<!-- wmmubpes&#45;&gt;eurkiiyc -->
<g id="edge2" class="edge">
<title>wmmubpes&#45;&gt;eurkiiyc</title>
<path fill="none" stroke="#7b8894" d="M410.26,-319.75C410.26,-319.75 453.01,-319.75 453.01,-319.75"/>
<polygon fill="#7b8894" stroke="#7b8894" points="453.01,-323.25 463.01,-319.75 453.01,-316.25 453.01,-323.25"/>
</g>
<!-- ehbbbcbq -->
<g id="node5" class="node">
<title>ehbbbcbq</title>
<image xlink:href="assets/azure/compute/cloud-services-classic.png" width="100.8px" height="100.8px" preserveAspectRatio="xMinYMin meet" x="619.2" y="-370.15"/>
<text text-anchor="middle" x="669.6" y="-243.95" font-family="Sans-Serif" font-size="13.00" fill="#2d3436">Enrich</text>
</g>
<!-- eurkiiyc&#45;&gt;ehbbbcbq -->
<g id="edge3" class="edge">
<title>eurkiiyc&#45;&gt;ehbbbcbq</title>
<path fill="none" stroke="#7b8894" d="M565.06,-319.75C565.06,-319.75 607.81,-319.75 607.81,-319.75"/>
<polygon fill="#7b8894" stroke="#7b8894" points="607.81,-323.25 617.81,-319.75 607.81,-316.25 607.81,-323.25"/>
</g>
<!-- zrnnzqpg -->
<g id="node6" class="node">
<title>zrnnzqpg</title>
<image xlink:href="assets/azure/database/sql-databases.png" width="100.8px" height="100.8px" preserveAspectRatio="xMinYMin meet" x="774" y="-370.15"/>
<text text-anchor="middle" x="824.4" y="-243.95" font-family="Sans-Serif" font-size="13.00" fill="#2d3436">Core</text>
</g>
<!-- ehbbbcbq&#45;&gt;zrnnzqpg -->
<g id="edge4" class="edge">
<title>ehbbbcbq&#45;&gt;zrnnzqpg</title>
<path fill="none" stroke="#7b8894" d="M719.86,-319.75C719.86,-319.75 762.61,-319.75 762.61,-319.75"/>
<polygon fill="#7b8894" stroke="#7b8894" points="762.61,-323.25 772.61,-319.75 762.61,-316.25 762.61,-323.25"/>
</g>
<!-- rgrrichr -->
<g id="node7" class="node">
<title>rgrrichr</title>
<image xlink:href="assets/azure/migration/database-migration-services.png" width="100.8px" height="100.8px" preserveAspectRatio="xMinYMin meet" x="928.8" y="-370.15"/>
<text text-anchor="middle" x="979.2" y="-243.95" font-family="Sans-Serif" font-size="13.00" fill="#2d3436">Move</text>
</g>
<!-- zrnnzqpg&#45;&gt;rgrrichr -->
<g id="edge5" class="edge">
<title>zrnnzqpg&#45;&gt;rgrrichr</title>
<path fill="none" stroke="#7b8894" d="M874.66,-319.75C874.66,-319.75 917.41,-319.75 917.41,-319.75"/>
<polygon fill="#7b8894" stroke="#7b8894" points="917.41,-323.25 927.41,-319.75 917.41,-316.25 917.41,-323.25"/>
</g>
<!-- wqepbiga -->
<g id="node8" class="node">
<title>wqepbiga</title>
<image xlink:href="assets/azure/migration/migration-projects.png" width="100.8px" height="100.8px" preserveAspectRatio="xMinYMin meet" x="1083.6" y="-370.15"/>
<text text-anchor="middle" x="1134" y="-243.95" font-family="Sans-Serif" font-size="13.00" fill="#2d3436">BAIS</text>
</g>
<!-- rgrrichr&#45;&gt;wqepbiga -->
<g id="edge12" class="edge">
<title>rgrrichr&#45;&gt;wqepbiga</title>
<path fill="none" stroke="#7b8894" d="M1029.46,-319.75C1029.46,-319.75 1072.21,-319.75 1072.21,-319.75"/>
<polygon fill="#7b8894" stroke="#7b8894" points="1072.21,-323.25 1082.21,-319.75 1072.21,-316.25 1072.21,-323.25"/>
</g>
<!-- wukxamse -->
<g id="node9" class="node">
<title>wukxamse</title>
<image xlink:href="assets/azure/migration/migration-projects.png" width="100.8px" height="100.8px" preserveAspectRatio="xMinYMin meet" x="1238.4" y="-370.15"/>
<text text-anchor="middle" x="1288.8" y="-258.35" font-family="Sans-Serif" font-size="13.00" fill="#2d3436">Bundesbank</text>
</g>
<!-- wqepbiga&#45;&gt;wukxamse -->
<g id="edge6" class="edge">
<title>wqepbiga&#45;&gt;wukxamse</title>
<path fill="none" stroke="#7b8894" d="M1184.26,-319.75C1184.26,-319.75 1227.01,-319.75 1227.01,-319.75"/>
<polygon fill="#7b8894" stroke="#7b8894" points="1227.01,-323.25 1237.01,-319.75 1227.01,-316.25 1227.01,-323.25"/>
</g>
<!-- gxujzmjk&#45;&gt;wmmubpes -->
<g id="edge10" class="edge">
<title>gxujzmjk&#45;&gt;wmmubpes</title>
<path fill="none" stroke="#7b8894" d="M255.46,-319.75C255.46,-319.75 298.21,-319.75 298.21,-319.75"/>
<polygon fill="#7b8894" stroke="#7b8894" points="298.21,-323.25 308.21,-319.75 298.21,-316.25 298.21,-323.25"/>
</g>
<!-- aopofdrh&#45;&gt;wmmubpes -->
<g id="edge11" class="edge">
<title>aopofdrh&#45;&gt;wmmubpes</title>
<path fill="none" stroke="#7b8894" d="M255.52,-520.75C300.78,-520.75 360.2,-520.75 360.2,-520.75 360.2,-520.75 360.2,-410.42 360.2,-410.42"/>
<polygon fill="#7b8894" stroke="#7b8894" points="363.7,-410.42 360.2,-400.42 356.7,-410.42 363.7,-410.42"/>
</g>
</g>
</svg>
